<svg width="257" height="73" viewBox="0 0 257 73" fill="none" xmlns="http://www.w3.org/2000/svg">
<mask id="path-1-outside-1_1_7" maskUnits="userSpaceOnUse" x="23" y="21" width="180" height="37" fill="black">
<rect fill="white" x="23" y="21" width="180" height="37"/>
<path d="M24.6448 56V23.36H35.3968C38.8208 23.36 41.3808 24.224 43.0768 25.952C44.8048 27.68 45.6688 29.984 45.6688 32.864V35.408C45.6688 38.288 44.8048 40.608 43.0768 42.368C41.3808 44.096 38.8208 44.96 35.3968 44.96H30.4048V56H24.6448ZM35.3968 28.88H30.4048V39.44H35.3968C36.8048 39.44 37.8768 39.088 38.6128 38.384C39.3808 37.68 39.7648 36.688 39.7648 35.408V32.864C39.7648 31.616 39.3808 30.64 38.6128 29.936C37.8768 29.232 36.8048 28.88 35.3968 28.88ZM57.9673 44V56H52.2073V23.36H63.1033C66.3993 23.36 68.9273 24.208 70.6873 25.904C72.4793 27.568 73.3753 29.808 73.3753 32.624V34.688C73.3753 36.544 72.9753 38.176 72.1753 39.584C71.3753 40.992 70.2233 42.064 68.7193 42.8C71.3433 47.28 73.5833 51.68 75.4393 56H68.8633C67.2633 52 65.3593 48 63.1513 44H57.9673ZM63.1033 28.64H57.9673V38.72H63.1033C64.5113 38.72 65.5833 38.368 66.3193 37.664C67.0873 36.928 67.4713 35.936 67.4713 34.688V32.624C67.4713 31.408 67.0873 30.448 66.3193 29.744C65.5833 29.008 64.5113 28.64 63.1033 28.64ZM104.545 36.224V43.088C104.545 47.248 103.505 50.528 101.425 52.928C99.3453 55.296 96.3053 56.48 92.3053 56.48C88.2733 56.48 85.2173 55.296 83.1373 52.928C81.0893 50.528 80.0653 47.248 80.0653 43.088V36.224C80.0653 32.064 81.0893 28.8 83.1373 26.432C85.2173 24.064 88.2733 22.88 92.3053 22.88C96.3053 22.88 99.3453 24.064 101.425 26.432C103.505 28.8 104.545 32.064 104.545 36.224ZM98.6413 36.224C98.6413 33.6 98.1293 31.632 97.1053 30.32C96.0813 28.976 94.4813 28.304 92.3053 28.304C90.1293 28.304 88.5293 28.976 87.5053 30.32C86.4813 31.632 85.9693 33.6 85.9693 36.224V43.088C85.9693 45.712 86.4813 47.696 87.5053 49.04C88.5293 50.384 90.1293 51.056 92.3053 51.056C94.4813 51.056 96.0813 50.384 97.1053 49.04C98.1293 47.696 98.6413 45.712 98.6413 43.088V36.224ZM108.428 56.48V50.96C111.02 50.96 112.892 50.48 114.044 49.52C115.228 48.528 115.82 46.784 115.82 44.288V23.36H121.58V44.288C121.58 46.784 121.196 48.944 120.428 50.768C119.66 52.592 118.316 54 116.396 54.992C114.508 55.984 111.852 56.48 108.428 56.48ZM148.651 50.48V56H129.739V23.36H148.171V28.88H135.499V36.704H146.731V42.224H135.499V50.48H148.651ZM159.889 43.088C159.889 45.424 160.401 47.344 161.425 48.848C162.449 50.32 164.129 51.056 166.465 51.056C167.425 51.056 168.417 50.928 169.441 50.672C170.497 50.416 171.793 49.984 173.329 49.376L175.105 54.368C173.377 55.136 171.777 55.68 170.305 56C168.865 56.32 167.473 56.48 166.129 56.48C163.441 56.48 161.185 55.904 159.361 54.752C157.569 53.6 156.225 52.016 155.329 50C154.433 47.984 153.985 45.68 153.985 43.088V36.224C153.985 33.632 154.433 31.328 155.329 29.312C156.225 27.296 157.569 25.728 159.361 24.608C161.185 23.456 163.441 22.88 166.129 22.88C167.441 22.88 168.801 23.04 170.209 23.36C171.617 23.648 173.153 24.16 174.817 24.896L173.041 29.984C171.569 29.376 170.337 28.944 169.345 28.688C168.353 28.432 167.393 28.304 166.465 28.304C164.129 28.304 162.449 29.04 161.425 30.512C160.401 31.984 159.889 33.888 159.889 36.224V43.088ZM177.226 28.88V23.36H201.226V28.88H192.106V56H186.346V28.88H177.226Z"/>
</mask>
<path d="M24.6448 56V23.36H35.3968C38.8208 23.36 41.3808 24.224 43.0768 25.952C44.8048 27.68 45.6688 29.984 45.6688 32.864V35.408C45.6688 38.288 44.8048 40.608 43.0768 42.368C41.3808 44.096 38.8208 44.96 35.3968 44.96H30.4048V56H24.6448ZM35.3968 28.88H30.4048V39.44H35.3968C36.8048 39.44 37.8768 39.088 38.6128 38.384C39.3808 37.68 39.7648 36.688 39.7648 35.408V32.864C39.7648 31.616 39.3808 30.64 38.6128 29.936C37.8768 29.232 36.8048 28.88 35.3968 28.88ZM57.9673 44V56H52.2073V23.36H63.1033C66.3993 23.36 68.9273 24.208 70.6873 25.904C72.4793 27.568 73.3753 29.808 73.3753 32.624V34.688C73.3753 36.544 72.9753 38.176 72.1753 39.584C71.3753 40.992 70.2233 42.064 68.7193 42.8C71.3433 47.28 73.5833 51.68 75.4393 56H68.8633C67.2633 52 65.3593 48 63.1513 44H57.9673ZM63.1033 28.64H57.9673V38.72H63.1033C64.5113 38.72 65.5833 38.368 66.3193 37.664C67.0873 36.928 67.4713 35.936 67.4713 34.688V32.624C67.4713 31.408 67.0873 30.448 66.3193 29.744C65.5833 29.008 64.5113 28.64 63.1033 28.64ZM104.545 36.224V43.088C104.545 47.248 103.505 50.528 101.425 52.928C99.3453 55.296 96.3053 56.48 92.3053 56.48C88.2733 56.48 85.2173 55.296 83.1373 52.928C81.0893 50.528 80.0653 47.248 80.0653 43.088V36.224C80.0653 32.064 81.0893 28.8 83.1373 26.432C85.2173 24.064 88.2733 22.88 92.3053 22.88C96.3053 22.88 99.3453 24.064 101.425 26.432C103.505 28.8 104.545 32.064 104.545 36.224ZM98.6413 36.224C98.6413 33.6 98.1293 31.632 97.1053 30.32C96.0813 28.976 94.4813 28.304 92.3053 28.304C90.1293 28.304 88.5293 28.976 87.5053 30.32C86.4813 31.632 85.9693 33.6 85.9693 36.224V43.088C85.9693 45.712 86.4813 47.696 87.5053 49.04C88.5293 50.384 90.1293 51.056 92.3053 51.056C94.4813 51.056 96.0813 50.384 97.1053 49.04C98.1293 47.696 98.6413 45.712 98.6413 43.088V36.224ZM108.428 56.48V50.96C111.02 50.96 112.892 50.48 114.044 49.52C115.228 48.528 115.82 46.784 115.82 44.288V23.36H121.58V44.288C121.58 46.784 121.196 48.944 120.428 50.768C119.66 52.592 118.316 54 116.396 54.992C114.508 55.984 111.852 56.48 108.428 56.48ZM148.651 50.48V56H129.739V23.36H148.171V28.88H135.499V36.704H146.731V42.224H135.499V50.48H148.651ZM159.889 43.088C159.889 45.424 160.401 47.344 161.425 48.848C162.449 50.32 164.129 51.056 166.465 51.056C167.425 51.056 168.417 50.928 169.441 50.672C170.497 50.416 171.793 49.984 173.329 49.376L175.105 54.368C173.377 55.136 171.777 55.68 170.305 56C168.865 56.32 167.473 56.48 166.129 56.48C163.441 56.48 161.185 55.904 159.361 54.752C157.569 53.6 156.225 52.016 155.329 50C154.433 47.984 153.985 45.68 153.985 43.088V36.224C153.985 33.632 154.433 31.328 155.329 29.312C156.225 27.296 157.569 25.728 159.361 24.608C161.185 23.456 163.441 22.88 166.129 22.88C167.441 22.88 168.801 23.04 170.209 23.36C171.617 23.648 173.153 24.16 174.817 24.896L173.041 29.984C171.569 29.376 170.337 28.944 169.345 28.688C168.353 28.432 167.393 28.304 166.465 28.304C164.129 28.304 162.449 29.04 161.425 30.512C160.401 31.984 159.889 33.888 159.889 36.224V43.088ZM177.226 28.88V23.36H201.226V28.88H192.106V56H186.346V28.88H177.226Z" fill="white"/>
<path d="M24.6448 56H23.6448V57H24.6448V56ZM24.6448 23.36V22.36H23.6448V23.36H24.6448ZM43.0768 25.952L42.3631 26.6525L42.3697 26.6591L43.0768 25.952ZM43.0768 42.368L42.3632 41.6674L42.3631 41.6675L43.0768 42.368ZM30.4048 44.96V43.96H29.4048V44.96H30.4048ZM30.4048 56V57H31.4048V56H30.4048ZM30.4048 28.88V27.88H29.4048V28.88H30.4048ZM30.4048 39.44H29.4048V40.44H30.4048V39.44ZM38.6128 38.384L37.9371 37.6468L37.9293 37.654L37.9216 37.6614L38.6128 38.384ZM38.6128 29.936L37.9216 30.6586L37.9293 30.666L37.9371 30.6732L38.6128 29.936ZM24.6448 56H25.6448V23.36H24.6448H23.6448V56H24.6448ZM24.6448 23.36V24.36H35.3968V23.36V22.36H24.6448V23.36ZM35.3968 23.36V24.36C38.6651 24.36 40.9217 25.1838 42.3631 26.6525L43.0768 25.952L43.7905 25.2515C41.8399 23.2642 38.9765 22.36 35.3968 22.36V23.36ZM43.0768 25.952L42.3697 26.6591C43.877 28.1664 44.6688 30.1983 44.6688 32.864H45.6688H46.6688C46.6688 29.7697 45.7327 27.1936 43.7839 25.2449L43.0768 25.952ZM45.6688 32.864H44.6688V35.408H45.6688H46.6688V32.864H45.6688ZM45.6688 35.408H44.6688C44.6688 38.0732 43.877 40.1256 42.3632 41.6674L43.0768 42.368L43.7904 43.0686C45.7326 41.0904 46.6688 38.5028 46.6688 35.408H45.6688ZM43.0768 42.368L42.3631 41.6675C40.9217 43.1362 38.6651 43.96 35.3968 43.96V44.96V45.96C38.9765 45.96 41.8399 45.0558 43.7905 43.0685L43.0768 42.368ZM35.3968 44.96V43.96H30.4048V44.96V45.96H35.3968V44.96ZM30.4048 44.96H29.4048V56H30.4048H31.4048V44.96H30.4048ZM30.4048 56V55H24.6448V56V57H30.4048V56ZM35.3968 28.88V27.88H30.4048V28.88V29.88H35.3968V28.88ZM30.4048 28.88H29.4048V39.44H30.4048H31.4048V28.88H30.4048ZM30.4048 39.44V40.44H35.3968V39.44V38.44H30.4048V39.44ZM35.3968 39.44V40.44C36.9626 40.44 38.3206 40.0474 39.304 39.1066L38.6128 38.384L37.9216 37.6614C37.4331 38.1286 36.647 38.44 35.3968 38.44V39.44ZM38.6128 38.384L39.2885 39.1212C40.3091 38.1856 40.7648 36.8993 40.7648 35.408H39.7648H38.7648C38.7648 36.4767 38.4525 37.1743 37.9371 37.6468L38.6128 38.384ZM39.7648 35.408H40.7648V32.864H39.7648H38.7648V35.408H39.7648ZM39.7648 32.864H40.7648C40.7648 31.3959 40.3037 30.1295 39.2885 29.1988L38.6128 29.936L37.9371 30.6732C38.4579 31.1505 38.7648 31.8361 38.7648 32.864H39.7648ZM38.6128 29.936L39.304 29.2134C38.3206 28.2726 36.9626 27.88 35.3968 27.88V28.88V29.88C36.647 29.88 37.4331 30.1914 37.9216 30.6586L38.6128 29.936ZM57.9673 44V43H56.9673V44H57.9673ZM57.9673 56V57H58.9673V56H57.9673ZM52.2073 56H51.2073V57H52.2073V56ZM52.2073 23.36V22.36H51.2073V23.36H52.2073ZM70.6873 25.904L69.9934 26.6241L70.0001 26.6305L70.0069 26.6368L70.6873 25.904ZM72.1753 39.584L73.0448 40.078L73.0448 40.078L72.1753 39.584ZM68.7193 42.8L68.2798 41.9018L67.3118 42.3755L67.8564 43.3054L68.7193 42.8ZM75.4393 56V57H76.9573L76.3581 55.6053L75.4393 56ZM68.8633 56L67.9348 56.3714L68.1863 57H68.8633V56ZM63.1513 44L64.0268 43.5167L63.7416 43H63.1513V44ZM57.9673 28.64V27.64H56.9673V28.64H57.9673ZM57.9673 38.72H56.9673V39.72H57.9673V38.72ZM66.3193 37.664L67.0105 38.3866L67.0112 38.386L66.3193 37.664ZM66.3193 29.744L65.6122 30.4511L65.6276 30.4665L65.6436 30.4812L66.3193 29.744ZM57.9673 44H56.9673V56H57.9673H58.9673V44H57.9673ZM57.9673 56V55H52.2073V56V57H57.9673V56ZM52.2073 56H53.2073V23.36H52.2073H51.2073V56H52.2073ZM52.2073 23.36V24.36H63.1033V23.36V22.36H52.2073V23.36ZM63.1033 23.36V24.36C66.2328 24.36 68.4771 25.1629 69.9934 26.6241L70.6873 25.904L71.3812 25.1839C69.3776 23.2531 66.5658 22.36 63.1033 22.36V23.36ZM70.6873 25.904L70.0069 26.6368C71.5635 28.0823 72.3753 30.0398 72.3753 32.624H73.3753H74.3753C74.3753 29.5762 73.3951 27.0537 71.3678 25.1712L70.6873 25.904ZM73.3753 32.624H72.3753V34.688H73.3753H74.3753V32.624H73.3753ZM73.3753 34.688H72.3753C72.3753 36.3965 72.0085 37.8534 71.3059 39.09L72.1753 39.584L73.0448 40.078C73.9422 38.4986 74.3753 36.6915 74.3753 34.688H73.3753ZM72.1753 39.584L71.3059 39.09C70.6088 40.3169 69.6096 41.251 68.2798 41.9018L68.7193 42.8L69.1589 43.6982C70.837 42.877 72.1419 41.6671 73.0448 40.078L72.1753 39.584ZM68.7193 42.8L67.8564 43.3054C70.4617 47.7533 72.6824 52.1164 74.5205 56.3947L75.4393 56L76.3581 55.6053C74.4842 51.2436 72.225 46.8067 69.5822 42.2946L68.7193 42.8ZM75.4393 56V55H68.8633V56V57H75.4393V56ZM68.8633 56L69.7918 55.6286C68.1756 51.588 66.2536 47.5507 64.0268 43.5167L63.1513 44L62.2758 44.4833C64.4651 48.4493 66.3511 52.412 67.9348 56.3714L68.8633 56ZM63.1513 44V43H57.9673V44V45H63.1513V44ZM63.1033 28.64V27.64H57.9673V28.64V29.64H63.1033V28.64ZM57.9673 28.64H56.9673V38.72H57.9673H58.9673V28.64H57.9673ZM57.9673 38.72V39.72H63.1033V38.72V37.72H57.9673V38.72ZM63.1033 38.72V39.72C64.6691 39.72 66.0271 39.3274 67.0105 38.3866L66.3193 37.664L65.6281 36.9414C65.1396 37.4086 64.3535 37.72 63.1033 37.72V38.72ZM66.3193 37.664L67.0112 38.386C68.0102 37.4286 68.4713 36.1573 68.4713 34.688H67.4713H66.4713C66.4713 35.7146 66.1644 36.4274 65.6274 36.942L66.3193 37.664ZM67.4713 34.688H68.4713V32.624H67.4713H66.4713V34.688H67.4713ZM67.4713 32.624H68.4713C68.4713 31.179 68.0047 29.9323 66.995 29.0068L66.3193 29.744L65.6436 30.4812C66.17 30.9637 66.4713 31.637 66.4713 32.624H67.4713ZM66.3193 29.744L67.0264 29.0369C66.0444 28.0548 64.6804 27.64 63.1033 27.64V28.64V29.64C64.3422 29.64 65.1223 29.9612 65.6122 30.4511L66.3193 29.744ZM101.425 52.928L102.177 53.588L102.181 53.5829L101.425 52.928ZM83.1373 52.928L82.3766 53.5771L82.3813 53.5826L82.386 53.5879L83.1373 52.928ZM83.1373 26.432L82.386 25.772L82.3809 25.7778L83.1373 26.432ZM101.425 26.432L102.177 25.7721L102.177 25.7721L101.425 26.432ZM97.1053 30.32L96.3098 30.9261L96.317 30.9353L97.1053 30.32ZM87.5053 30.32L88.2937 30.9353L88.3007 30.926L87.5053 30.32ZM87.5053 49.04L88.3007 48.434L88.3007 48.434L87.5053 49.04ZM97.1053 49.04L96.3099 48.434L96.3099 48.434L97.1053 49.04ZM104.545 36.224H103.545V43.088H104.545H105.545V36.224H104.545ZM104.545 43.088H103.545C103.545 47.0833 102.549 50.105 100.67 52.2731L101.425 52.928L102.181 53.5829C104.462 50.951 105.545 47.4127 105.545 43.088H104.545ZM101.425 52.928L100.674 52.2681C98.8326 54.3645 96.1007 55.48 92.3053 55.48V56.48V57.48C96.5099 57.48 99.8581 56.2275 102.177 53.5879L101.425 52.928ZM92.3053 56.48V55.48C88.475 55.48 85.7286 54.3627 83.8886 52.2681L83.1373 52.928L82.386 53.5879C84.7061 56.2293 88.0716 57.48 92.3053 57.48V56.48ZM83.1373 52.928L83.898 52.2789C82.0479 50.1108 81.0653 47.0869 81.0653 43.088H80.0653H79.0653C79.0653 47.4091 80.1307 50.9452 82.3766 53.5771L83.1373 52.928ZM80.0653 43.088H81.0653V36.224H80.0653H79.0653V43.088H80.0653ZM80.0653 36.224H81.0653C81.0653 32.2243 82.0482 29.2199 83.8937 27.0861L83.1373 26.432L82.3809 25.7778C80.1304 28.3801 79.0653 31.9037 79.0653 36.224H80.0653ZM83.1373 26.432L83.8886 27.0919C85.7286 24.9972 88.475 23.88 92.3053 23.88V22.88V21.88C88.0716 21.88 84.7061 23.1307 82.386 25.7721L83.1373 26.432ZM92.3053 22.88V23.88C96.1007 23.88 98.8326 24.9955 100.674 27.0919L101.425 26.432L102.177 25.7721C99.8581 23.1325 96.5099 21.88 92.3053 21.88V22.88ZM101.425 26.432L100.674 27.0919C102.548 29.2257 103.545 32.2278 103.545 36.224H104.545H105.545C105.545 31.9001 104.462 28.3743 102.177 25.7721L101.425 26.432ZM98.6413 36.224H99.6413C99.6413 33.4974 99.114 31.2683 97.8936 29.7047L97.1053 30.32L96.317 30.9353C97.1447 31.9957 97.6413 33.7026 97.6413 36.224H98.6413ZM97.1053 30.32L97.9007 29.714C96.635 28.0527 94.6951 27.304 92.3053 27.304V28.304V29.304C94.2676 29.304 95.5276 29.8993 96.3099 30.926L97.1053 30.32ZM92.3053 28.304V27.304C89.9156 27.304 87.9756 28.0527 86.7099 29.714L87.5053 30.32L88.3007 30.926C89.083 29.8993 90.3431 29.304 92.3053 29.304V28.304ZM87.5053 30.32L86.717 29.7047C85.4967 31.2683 84.9693 33.4974 84.9693 36.224H85.9693H86.9693C86.9693 33.7026 87.466 31.9957 88.2936 30.9353L87.5053 30.32ZM85.9693 36.224H84.9693V43.088H85.9693H86.9693V36.224H85.9693ZM85.9693 43.088H84.9693C84.9693 45.8172 85.4977 48.0551 86.7099 49.646L87.5053 49.04L88.3007 48.434C87.4649 47.3369 86.9693 45.6068 86.9693 43.088H85.9693ZM87.5053 49.04L86.7099 49.646C87.9756 51.3073 89.9156 52.056 92.3053 52.056V51.056V50.056C90.3431 50.056 89.083 49.4607 88.3007 48.434L87.5053 49.04ZM92.3053 51.056V52.056C94.6951 52.056 96.635 51.3073 97.9007 49.646L97.1053 49.04L96.3099 48.434C95.5276 49.4607 94.2676 50.056 92.3053 50.056V51.056ZM97.1053 49.04L97.9007 49.646C99.1129 48.0551 99.6413 45.8172 99.6413 43.088H98.6413H97.6413C97.6413 45.6068 97.1457 47.3369 96.3099 48.434L97.1053 49.04ZM98.6413 43.088H99.6413V36.224H98.6413H97.6413V43.088H98.6413ZM108.428 56.48H107.428V57.48H108.428V56.48ZM108.428 50.96V49.96H107.428V50.96H108.428ZM114.044 49.52L114.684 50.2882L114.686 50.2865L114.044 49.52ZM115.82 23.36V22.36H114.82V23.36H115.82ZM121.58 23.36H122.58V22.36H121.58V23.36ZM120.428 50.768L121.349 51.1561L121.349 51.1561L120.428 50.768ZM116.396 54.992L115.937 54.1036L115.931 54.1068L116.396 54.992ZM108.428 56.48H109.428V50.96H108.428H107.428V56.48H108.428ZM108.428 50.96V51.96C111.099 51.96 113.261 51.4737 114.684 50.2882L114.044 49.52L113.404 48.7518C112.522 49.4863 110.94 49.96 108.428 49.96V50.96ZM114.044 49.52L114.686 50.2865C116.205 49.0134 116.82 46.9002 116.82 44.288H115.82H114.82C114.82 46.6678 114.25 48.0426 113.401 48.7535L114.044 49.52ZM115.82 44.288H116.82V23.36H115.82H114.82V44.288H115.82ZM115.82 23.36V24.36H121.58V23.36V22.36H115.82V23.36ZM121.58 23.36H120.58V44.288H121.58H122.58V23.36H121.58ZM121.58 44.288H120.58C120.58 46.6843 120.211 48.7063 119.506 50.3799L120.428 50.768L121.349 51.1561C122.181 49.1817 122.58 46.8837 122.58 44.288H121.58ZM120.428 50.768L119.506 50.3799C118.837 51.9678 117.669 53.2085 115.937 54.1036L116.396 54.992L116.855 55.8804C118.962 54.7915 120.482 53.2162 121.349 51.1561L120.428 50.768ZM116.396 54.992L115.931 54.1068C114.248 54.9911 111.777 55.48 108.428 55.48V56.48V57.48C111.926 57.48 114.768 56.9769 116.861 55.8772L116.396 54.992ZM148.651 50.48H149.651V49.48H148.651V50.48ZM148.651 56V57H149.651V56H148.651ZM129.739 56H128.739V57H129.739V56ZM129.739 23.36V22.36H128.739V23.36H129.739ZM148.171 23.36H149.171V22.36H148.171V23.36ZM148.171 28.88V29.88H149.171V28.88H148.171ZM135.499 28.88V27.88H134.499V28.88H135.499ZM135.499 36.704H134.499V37.704H135.499V36.704ZM146.731 36.704H147.731V35.704H146.731V36.704ZM146.731 42.224V43.224H147.731V42.224H146.731ZM135.499 42.224V41.224H134.499V42.224H135.499ZM135.499 50.48H134.499V51.48H135.499V50.48ZM148.651 50.48H147.651V56H148.651H149.651V50.48H148.651ZM148.651 56V55H129.739V56V57H148.651V56ZM129.739 56H130.739V23.36H129.739H128.739V56H129.739ZM129.739 23.36V24.36H148.171V23.36V22.36H129.739V23.36ZM148.171 23.36H147.171V28.88H148.171H149.171V23.36H148.171ZM148.171 28.88V27.88H135.499V28.88V29.88H148.171V28.88ZM135.499 28.88H134.499V36.704H135.499H136.499V28.88H135.499ZM135.499 36.704V37.704H146.731V36.704V35.704H135.499V36.704ZM146.731 36.704H145.731V42.224H146.731H147.731V36.704H146.731ZM146.731 42.224V41.224H135.499V42.224V43.224H146.731V42.224ZM135.499 42.224H134.499V50.48H135.499H136.499V42.224H135.499ZM135.499 50.48V51.48H148.651V50.48V49.48H135.499V50.48ZM161.425 48.848L160.598 49.4108L160.604 49.4191L161.425 48.848ZM169.441 50.672L169.205 49.7001L169.198 49.7019L169.441 50.672ZM173.329 49.376L174.271 49.0408L173.924 48.065L172.961 48.4462L173.329 49.376ZM175.105 54.368L175.511 55.2818L176.358 54.9056L176.047 54.0328L175.105 54.368ZM170.305 56L170.093 55.0228L170.088 55.0238L170.305 56ZM159.361 54.752L158.82 55.5932L158.827 55.5975L159.361 54.752ZM155.329 50L156.243 49.5939L156.243 49.5939L155.329 50ZM155.329 29.312L154.415 28.9059L154.415 28.9059L155.329 29.312ZM159.361 24.608L159.891 25.456L159.895 25.4535L159.361 24.608ZM170.209 23.36L169.987 24.3351L169.998 24.3375L170.009 24.3397L170.209 23.36ZM174.817 24.896L175.761 25.2256L176.065 24.3546L175.221 23.9815L174.817 24.896ZM173.041 29.984L172.659 30.9083L173.637 31.312L173.985 30.3136L173.041 29.984ZM169.345 28.688L169.095 29.6563L169.095 29.6563L169.345 28.688ZM161.425 30.512L162.246 31.0831L162.246 31.0831L161.425 30.512ZM159.889 43.088H158.889C158.889 45.568 159.433 47.6995 160.598 49.4108L161.425 48.848L162.252 48.2852C161.369 46.9885 160.889 45.28 160.889 43.088H159.889ZM161.425 48.848L160.604 49.4191C161.87 51.2389 163.911 52.056 166.465 52.056V51.056V50.056C164.346 50.056 163.028 49.4011 162.246 48.2769L161.425 48.848ZM166.465 51.056V52.056C167.514 52.056 168.588 51.916 169.683 51.6421L169.441 50.672L169.198 49.7019C168.246 49.94 167.336 50.056 166.465 50.056V51.056ZM169.441 50.672L169.677 51.6438C170.794 51.3729 172.138 50.9231 173.697 50.3058L173.329 49.376L172.961 48.4462C171.448 49.0449 170.2 49.4591 169.205 49.7001L169.441 50.672ZM173.329 49.376L172.387 49.7112L174.163 54.7032L175.105 54.368L176.047 54.0328L174.271 49.0408L173.329 49.376ZM175.105 54.368L174.699 53.4542C173.018 54.2012 171.484 54.7204 170.093 55.0228L170.305 56L170.517 56.9772C172.07 56.6396 173.736 56.0708 175.511 55.2818L175.105 54.368ZM170.305 56L170.088 55.0238C168.712 55.3295 167.393 55.48 166.129 55.48V56.48V57.48C167.553 57.48 169.017 57.3105 170.522 56.9762L170.305 56ZM166.129 56.48V55.48C163.584 55.48 161.524 54.9354 159.895 53.9065L159.361 54.752L158.827 55.5975C160.846 56.8726 163.298 57.48 166.129 57.48V56.48ZM159.361 54.752L159.902 53.9108C158.28 52.8682 157.062 51.4383 156.243 49.5939L155.329 50L154.415 50.4061C155.387 52.5937 156.858 54.3318 158.82 55.5932L159.361 54.752ZM155.329 50L156.243 49.5939C155.413 47.7261 154.985 45.5643 154.985 43.088H153.985H152.985C152.985 45.7957 153.453 48.2419 154.415 50.4061L155.329 50ZM153.985 43.088H154.985V36.224H153.985H152.985V43.088H153.985ZM153.985 36.224H154.985C154.985 33.7477 155.413 31.5859 156.243 29.7181L155.329 29.312L154.415 28.9059C153.453 31.0701 152.985 33.5163 152.985 36.224H153.985ZM155.329 29.312L156.243 29.7181C157.062 27.8759 158.276 26.4655 159.891 25.456L159.361 24.608L158.831 23.76C156.862 24.9905 155.388 26.7161 154.415 28.9059L155.329 29.312ZM159.361 24.608L159.895 25.4535C161.524 24.4246 163.584 23.88 166.129 23.88V22.88V21.88C163.298 21.88 160.846 22.4874 158.827 23.7625L159.361 24.608ZM166.129 22.88V23.88C167.359 23.88 168.645 24.03 169.987 24.3351L170.209 23.36L170.431 22.3849C168.957 22.05 167.523 21.88 166.129 21.88V22.88ZM170.209 23.36L170.009 24.3397C171.331 24.6102 172.798 25.0962 174.412 25.8105L174.817 24.896L175.221 23.9815C173.508 23.2238 171.903 22.6858 170.409 22.3803L170.209 23.36ZM174.817 24.896L173.873 24.5664L172.097 29.6544L173.041 29.984L173.985 30.3136L175.761 25.2256L174.817 24.896ZM173.041 29.984L173.423 29.0597C171.929 28.4426 170.649 27.9918 169.595 27.7197L169.345 28.688L169.095 29.6563C170.025 29.8962 171.209 30.3094 172.659 30.9083L173.041 29.984ZM169.345 28.688L169.595 27.7197C168.53 27.4448 167.485 27.304 166.465 27.304V28.304V29.304C167.3 29.304 168.176 29.4192 169.095 29.6563L169.345 28.688ZM166.465 28.304V27.304C163.911 27.304 161.87 28.1211 160.604 29.9409L161.425 30.512L162.246 31.0831C163.028 29.9589 164.346 29.304 166.465 29.304V28.304ZM161.425 30.512L160.604 29.9409C159.433 31.6247 158.889 33.7452 158.889 36.224H159.889H160.889C160.889 34.0308 161.369 32.3433 162.246 31.0831L161.425 30.512ZM159.889 36.224H158.889V43.088H159.889H160.889V36.224H159.889ZM177.226 28.88H176.226V29.88H177.226V28.88ZM177.226 23.36V22.36H176.226V23.36H177.226ZM201.226 23.36H202.226V22.36H201.226V23.36ZM201.226 28.88V29.88H202.226V28.88H201.226ZM192.106 28.88V27.88H191.106V28.88H192.106ZM192.106 56V57H193.106V56H192.106ZM186.346 56H185.346V57H186.346V56ZM186.346 28.88H187.346V27.88H186.346V28.88ZM177.226 28.88H178.226V23.36H177.226H176.226V28.88H177.226ZM177.226 23.36V24.36H201.226V23.36V22.36H177.226V23.36ZM201.226 23.36H200.226V28.88H201.226H202.226V23.36H201.226ZM201.226 28.88V27.88H192.106V28.88V29.88H201.226V28.88ZM192.106 28.88H191.106V56H192.106H193.106V28.88H192.106ZM192.106 56V55H186.346V56V57H192.106V56ZM186.346 56H187.346V28.88H186.346H185.346V56H186.346ZM186.346 28.88V27.88H177.226V28.88V29.88H186.346V28.88Z" fill="black" mask="url(#path-1-outside-1_1_7)"/>
<path d="M208.644 71.4C207.897 71.4 207.15 71.3467 206.404 71.24C205.657 71.1867 204.91 71.1067 204.164 71L208.404 49.48C208.937 46.5467 209.497 43.4533 210.084 40.2C210.724 36.8933 211.337 33.64 211.924 30.44C212.51 27.1867 213.017 24.1733 213.444 21.4C213.924 18.6267 214.297 16.28 214.564 14.36C216.857 13.9333 219.177 13.5333 221.524 13.16C223.87 12.7867 226.27 12.6 228.724 12.6C232.67 12.6 235.79 13.4267 238.084 15.08C240.377 16.68 242.03 18.8133 243.044 21.48C244.057 24.0933 244.564 26.9733 244.564 30.12C244.564 32.9467 244.164 35.9333 243.364 39.08C242.564 42.1733 241.417 45.2667 239.924 48.36C238.484 51.4 236.75 54.28 234.724 57C231.577 61.2133 227.737 64.68 223.204 67.4C218.724 70.0667 213.87 71.4 208.644 71.4ZM218.164 61.32C220.03 60.0933 221.79 58.2267 223.444 55.72C225.15 53.2133 226.75 50.2 228.244 46.68C229.577 43.4267 230.617 40.36 231.364 37.48C232.11 34.5467 232.484 32.12 232.484 30.2C232.484 28.2267 231.924 26.68 230.804 25.56C229.737 24.44 228.03 23.88 225.684 23.88C224.83 28.4667 223.95 32.7067 223.044 36.6C222.19 40.4933 221.337 44.4133 220.484 48.36C219.684 52.3067 218.91 56.6267 218.164 61.32Z" fill="#EB0F0A"/>
</svg>
